<svg width="40" height="40" viewBox="0 0 40 40" fill="none" xmlns="http://www.w3.org/2000/svg">
<path d="M33.3334 32.9167H6.6667C6.23234 32.9301 5.79974 32.8559 5.39472 32.6984C4.98971 32.5409 4.6206 32.3033 4.30946 31.9999C3.99831 31.6966 3.75151 31.3336 3.5838 30.9327C3.41609 30.5318 3.33092 30.1012 3.33336 29.6667V20.45C3.35511 19.5805 3.71588 18.7539 4.33866 18.1467C4.96144 17.5395 5.79689 17.1997 6.6667 17.2H11.45C11.5485 17.2 11.6461 17.1806 11.737 17.1429C11.828 17.1052 11.9107 17.05 11.9804 16.9803C12.05 16.9107 12.1053 16.828 12.1429 16.737C12.1806 16.646 12.2 16.5485 12.2 16.45V13.1167C12.2212 12.2614 12.5704 11.4469 13.1753 10.842C13.7803 10.237 14.5947 9.8878 15.45 9.86667H24.7167C25.6008 9.86667 26.4486 10.2179 27.0737 10.843C27.6988 11.4681 28.05 12.3159 28.05 13.2V20.65C28.05 20.8489 28.1291 21.0397 28.2697 21.1803C28.4104 21.321 28.6011 21.4 28.8 21.4H33.3334C34.2 21.426 35.0224 21.7887 35.626 22.411C36.2297 23.0333 36.5671 23.8663 36.5667 24.7333V29.6667C36.5689 30.0927 36.4869 30.5149 36.3254 30.9091C36.1639 31.3033 35.9261 31.6618 35.6256 31.9638C35.3251 32.2658 34.9679 32.5054 34.5746 32.669C34.1812 32.8325 33.7594 32.9167 33.3334 32.9167ZM6.6667 19.7C6.47069 19.7044 6.28418 19.7853 6.14711 19.9255C6.01004 20.0657 5.93332 20.2539 5.93336 20.45V29.6667C5.93332 29.8627 6.01004 30.051 6.14711 30.1912C6.28418 30.3314 6.47069 30.4123 6.6667 30.4167H33.3334C33.5294 30.4123 33.7159 30.3314 33.853 30.1912C33.99 30.051 34.0667 29.8627 34.0667 29.6667V24.5667C34.0667 24.3706 33.99 24.1823 33.853 24.0421C33.7159 23.902 33.5294 23.821 33.3334 23.8167H28.7167C27.8469 23.8169 27.0114 23.4772 26.3887 22.87C25.7659 22.2628 25.4051 21.4362 25.3834 20.5667V13.1167C25.3834 12.9178 25.3043 12.727 25.1637 12.5863C25.023 12.4457 24.8323 12.3667 24.6334 12.3667H15.45C15.2511 12.3667 15.0604 12.4457 14.9197 12.5863C14.7791 12.727 14.7 12.9178 14.7 13.1167V16.45C14.7003 17.3198 14.3606 18.1553 13.7534 18.778C13.1462 19.4008 12.3196 19.7616 11.45 19.7833L6.6667 19.7Z" fill="#2D2D2D"/>
</svg>
