<svg width="40" height="40" viewBox="0 0 40 40" fill="none" xmlns="http://www.w3.org/2000/svg">
<path d="M20 28.3333C17.454 28.3333 15.0122 27.3219 13.2118 25.5216C11.4115 23.7212 10.4 21.2794 10.4 18.7333V7.59999C10.3747 7.23933 10.3747 6.87733 10.4 6.51666C10.4372 6.20888 10.5874 5.92588 10.8214 5.72261C11.0555 5.51933 11.3568 5.4103 11.6667 5.41666H28.3334C28.6386 5.41487 28.9337 5.52635 29.1615 5.72954C29.3893 5.93273 29.5337 6.21319 29.5667 6.51666C29.5921 6.87733 29.5921 7.23933 29.5667 7.59999V18.7333C29.5667 21.2736 28.5599 23.7104 26.7667 25.5098C24.9736 27.3092 22.5403 28.3245 20 28.3333ZM12.9 7.91666V18.7333C12.9 20.6164 13.6481 22.4223 14.9796 23.7538C16.3111 25.0853 18.117 25.8333 20 25.8333C21.8831 25.8333 23.689 25.0853 25.0205 23.7538C26.352 22.4223 27.1 20.6164 27.1 18.7333V7.91666H12.9Z" fill="#2D2D2D"/>
<path d="M28.3334 21.1833C28.1678 21.1946 28.0017 21.1728 27.8447 21.1192C27.6876 21.0656 27.5428 20.9813 27.4187 20.8711C27.2946 20.761 27.1937 20.6272 27.1218 20.4777C27.0499 20.3281 27.0085 20.1657 27.0001 20C26.9999 19.6698 27.1288 19.3525 27.3592 19.1159C27.5896 18.8793 27.9033 18.742 28.2334 18.7333C32.1834 18.7333 33.2334 14.4 33.4167 12.2H28.3334C28.0019 12.2 27.6839 12.0683 27.4495 11.8339C27.2151 11.5995 27.0834 11.2815 27.0834 10.95C27.0834 10.6185 27.2151 10.3005 27.4495 10.0661C27.6839 9.83169 28.0019 9.7 28.3334 9.7H34.7334C35.0636 9.70431 35.379 9.8374 35.6125 10.0709C35.846 10.3044 35.9791 10.6198 35.9834 10.95C35.9834 14.4833 34.3167 21.1667 28.2334 21.2333L28.3334 21.1833Z" fill="#2D2D2D"/>
<path d="M11.7667 21.1833C5.63336 21.1833 4.01669 14.5167 4.01669 10.9C4.01669 10.5685 4.14839 10.2505 4.38281 10.0161C4.61723 9.78169 4.93517 9.64999 5.26669 9.64999H11.6667C11.9982 9.64999 12.3162 9.78169 12.5506 10.0161C12.785 10.2505 12.9167 10.5685 12.9167 10.9C12.9167 11.2315 12.785 11.5495 12.5506 11.7839C12.3162 12.0183 11.9982 12.15 11.6667 12.15H6.66669C6.91669 14.35 7.90003 18.6667 11.85 18.6833C12.0142 18.6833 12.1767 18.7157 12.3284 18.7785C12.48 18.8413 12.6178 18.9334 12.7339 19.0494C12.85 19.1655 12.9421 19.3033 13.0049 19.455C13.0677 19.6066 13.1 19.7692 13.1 19.9333C13.1 20.0975 13.0677 20.26 13.0049 20.4117C12.9421 20.5633 12.85 20.7011 12.7339 20.8172C12.6178 20.9333 12.48 21.0254 12.3284 21.0882C12.1767 21.151 12.0142 21.1833 11.85 21.1833H11.7667Z" fill="#2D2D2D"/>
<path d="M20 34.5833C19.6698 34.579 19.3544 34.4459 19.1209 34.2124C18.8874 33.9789 18.7543 33.6635 18.75 33.3333V27.0833C18.75 26.7518 18.8817 26.4339 19.1161 26.1994C19.3505 25.965 19.6685 25.8333 20 25.8333C20.3315 25.8333 20.6495 25.965 20.8839 26.1994C21.1183 26.4339 21.25 26.7518 21.25 27.0833V33.3333C21.2457 33.6635 21.1126 33.9789 20.8791 34.2124C20.6456 34.4459 20.3302 34.579 20 34.5833Z" fill="#2D2D2D"/>
</svg>
